<svg xmlns="http://www.w3.org/2000/svg" viewBox="0 0 64 64" width="64" height="64">
  <defs>
    <linearGradient id="gradSoporte" x1="0%" y1="0%" x2="100%" y2="100%">
      <stop offset="0%" stop-color="#f59e0b"/>
      <stop offset="100%" stop-color="#b45309"/>
    </linearGradient>
    <linearGradient id="gradPipe" x1="0%" y1="0%" x2="100%" y2="100%">
      <stop offset="0%" stop-color="#38bdf8"/>
      <stop offset="100%" stop-color="#0284c7"/>
    </linearGradient>
  </defs>
  <!-- Cañería soportada -->
  <circle cx="32" cy="24" r="14" fill="none" stroke="url(#gradPipe)" stroke-width="6"/>
  <circle cx="32" cy="24" r="6" fill="#0f172a"/>
  <!-- Abrazadera / U-Bolt -->
  <path d="M 14,24 A 18,18 0 0,1 50,24 L 50,42 L 44,42 L 44,24 A 12,12 0 0,0 20,24 L 20,42 L 14,42 Z" fill="url(#gradSoporte)"/>
  <!-- Zapata Estructural / Base Hanger -->
  <rect x="10" y="44" width="44" height="6" rx="2" fill="#64748b"/>
  <!-- Pilar / Pedestal de apoyo -->
  <polygon points="22,50 42,50 46,58 18,58" fill="#475569"/>
  <rect x="14" y="58" width="36" height="4" rx="1" fill="#334155"/>
</svg>
